<mxfile host="65bd71144e">
    <diagram id="Gf5gDXCumEqKNn6_2-wz" name="Page-1">
        <mxGraphModel dx="1726" dy="964" grid="1" gridSize="10" guides="1" tooltips="1" connect="1" arrows="1" fold="1" page="1" pageScale="1" pageWidth="827" pageHeight="1169" math="0" shadow="0">
            <root>
                <mxCell id="0"/>
                <object label="Untitled Layer" test="" id="X8BQIlrCG37Me6ErHnvs-21">
                    <mxCell parent="0"/>
                </object>
                <mxCell id="MnMOEux63UaktZFzUPe6-34" value="api&lt;br&gt;" style="shape=folder;fontStyle=1;spacingTop=10;tabWidth=40;tabHeight=14;tabPosition=left;html=1;fontSize=18;fontColor=default;verticalAlign=top;labelPosition=center;verticalLabelPosition=middle;align=left;" parent="X8BQIlrCG37Me6ErHnvs-21" vertex="1">
                    <mxGeometry x="970" y="270" width="260" height="550" as="geometry"/>
                </mxCell>
                <mxCell id="MnMOEux63UaktZFzUPe6-33" value="tests" style="shape=folder;fontStyle=1;spacingTop=10;tabWidth=40;tabHeight=14;tabPosition=left;html=1;labelPosition=center;verticalLabelPosition=middle;align=left;verticalAlign=top;fontSize=18;fontColor=default;horizontal=1;" parent="X8BQIlrCG37Me6ErHnvs-21" vertex="1">
                    <mxGeometry x="30" y="280" width="610" height="530" as="geometry"/>
                </mxCell>
                <mxCell id="MnMOEux63UaktZFzUPe6-17" style="edgeStyle=none;rounded=0;orthogonalLoop=1;jettySize=auto;html=1;exitX=0;exitY=0.5;exitDx=0;exitDy=0;dashed=1;" parent="X8BQIlrCG37Me6ErHnvs-21" source="MnMOEux63UaktZFzUPe6-2" target="MnMOEux63UaktZFzUPe6-3" edge="1">
                    <mxGeometry relative="1" as="geometry"/>
                </mxCell>
                <mxCell id="43" style="edgeStyle=none;html=1;exitX=1;exitY=0.5;exitDx=0;exitDy=0;" parent="X8BQIlrCG37Me6ErHnvs-21" source="MnMOEux63UaktZFzUPe6-2" target="MnMOEux63UaktZFzUPe6-16" edge="1">
                    <mxGeometry relative="1" as="geometry"/>
                </mxCell>
                <mxCell id="MnMOEux63UaktZFzUPe6-2" value="artist-api-test" style="rounded=0;whiteSpace=wrap;html=1;" parent="X8BQIlrCG37Me6ErHnvs-21" vertex="1">
                    <mxGeometry x="310" y="300" width="120" height="60" as="geometry"/>
                </mxCell>
                <mxCell id="MnMOEux63UaktZFzUPe6-3" value="fixtures" style="rounded=0;whiteSpace=wrap;html=1;" parent="X8BQIlrCG37Me6ErHnvs-21" vertex="1">
                    <mxGeometry x="50" y="505" width="120" height="60" as="geometry"/>
                </mxCell>
                <mxCell id="MnMOEux63UaktZFzUPe6-18" style="edgeStyle=none;rounded=0;orthogonalLoop=1;jettySize=auto;html=1;dashed=1;exitX=0;exitY=0.5;exitDx=0;exitDy=0;" parent="X8BQIlrCG37Me6ErHnvs-21" source="27" target="MnMOEux63UaktZFzUPe6-3" edge="1">
                    <mxGeometry relative="1" as="geometry">
                        <mxPoint x="332.40963855421705" y="650" as="sourcePoint"/>
                    </mxGeometry>
                </mxCell>
                <mxCell id="MnMOEux63UaktZFzUPe6-20" style="rounded=0;orthogonalLoop=1;jettySize=auto;html=1;exitX=1;exitY=0.5;exitDx=0;exitDy=0;" parent="X8BQIlrCG37Me6ErHnvs-21" source="28" target="MnMOEux63UaktZFzUPe6-16" edge="1">
                    <mxGeometry relative="1" as="geometry">
                        <mxPoint x="375" y="290" as="targetPoint"/>
                        <mxPoint x="370" y="650" as="sourcePoint"/>
                    </mxGeometry>
                </mxCell>
                <mxCell id="MnMOEux63UaktZFzUPe6-19" style="edgeStyle=none;rounded=0;orthogonalLoop=1;jettySize=auto;html=1;exitX=0;exitY=0.75;exitDx=0;exitDy=0;dashed=1;" parent="X8BQIlrCG37Me6ErHnvs-21" source="MnMOEux63UaktZFzUPe6-14" target="MnMOEux63UaktZFzUPe6-3" edge="1">
                    <mxGeometry relative="1" as="geometry"/>
                </mxCell>
                <mxCell id="42" style="edgeStyle=none;html=1;exitX=1;exitY=0.5;exitDx=0;exitDy=0;" parent="X8BQIlrCG37Me6ErHnvs-21" source="MnMOEux63UaktZFzUPe6-14" target="MnMOEux63UaktZFzUPe6-16" edge="1">
                    <mxGeometry relative="1" as="geometry"/>
                </mxCell>
                <mxCell id="MnMOEux63UaktZFzUPe6-14" value="auth-api-test" style="rounded=0;whiteSpace=wrap;html=1;" parent="X8BQIlrCG37Me6ErHnvs-21" vertex="1">
                    <mxGeometry x="310" y="370" width="120" height="60" as="geometry"/>
                </mxCell>
                <mxCell id="MnMOEux63UaktZFzUPe6-15" value="test-utils" style="rounded=0;whiteSpace=wrap;html=1;" parent="X8BQIlrCG37Me6ErHnvs-21" vertex="1">
                    <mxGeometry x="50" y="725" width="120" height="60" as="geometry"/>
                </mxCell>
                <mxCell id="MnMOEux63UaktZFzUPe6-26" style="edgeStyle=none;orthogonalLoop=1;jettySize=auto;html=1;entryX=1;entryY=0.5;entryDx=0;entryDy=0;entryPerimeter=0;rounded=0;endArrow=none;endFill=0;" parent="X8BQIlrCG37Me6ErHnvs-21" source="MnMOEux63UaktZFzUPe6-16" target="MnMOEux63UaktZFzUPe6-23" edge="1">
                    <mxGeometry relative="1" as="geometry"/>
                </mxCell>
                <mxCell id="MnMOEux63UaktZFzUPe6-27" style="edgeStyle=none;rounded=0;orthogonalLoop=1;jettySize=auto;html=1;entryX=1;entryY=0.5;entryDx=0;entryDy=0;entryPerimeter=0;endArrow=none;endFill=0;" parent="X8BQIlrCG37Me6ErHnvs-21" source="MnMOEux63UaktZFzUPe6-16" target="MnMOEux63UaktZFzUPe6-24" edge="1">
                    <mxGeometry relative="1" as="geometry">
                        <mxPoint x="400" y="110" as="sourcePoint"/>
                    </mxGeometry>
                </mxCell>
                <mxCell id="MnMOEux63UaktZFzUPe6-28" style="edgeStyle=none;rounded=0;orthogonalLoop=1;jettySize=auto;html=1;entryX=1;entryY=0.5;entryDx=0;entryDy=0;entryPerimeter=0;endArrow=none;endFill=0;" parent="X8BQIlrCG37Me6ErHnvs-21" source="MnMOEux63UaktZFzUPe6-16" target="MnMOEux63UaktZFzUPe6-25" edge="1">
                    <mxGeometry relative="1" as="geometry"/>
                </mxCell>
                <mxCell id="MnMOEux63UaktZFzUPe6-16" value="asteo-service" style="rounded=0;whiteSpace=wrap;html=1;" parent="X8BQIlrCG37Me6ErHnvs-21" vertex="1">
                    <mxGeometry x="490" y="505" width="120" height="60" as="geometry"/>
                </mxCell>
                <mxCell id="MnMOEux63UaktZFzUPe6-41" style="edgeStyle=none;rounded=0;orthogonalLoop=1;jettySize=auto;html=1;exitX=0;exitY=0.5;exitDx=0;exitDy=0;exitPerimeter=0;fontSize=12;fontColor=default;endArrow=none;endFill=0;" parent="X8BQIlrCG37Me6ErHnvs-21" source="MnMOEux63UaktZFzUPe6-23" target="47" edge="1">
                    <mxGeometry relative="1" as="geometry"/>
                </mxCell>
                <mxCell id="MnMOEux63UaktZFzUPe6-23" value="user endpoints" style="shape=providedRequiredInterface;html=1;verticalLabelPosition=bottom;sketch=0;rotation=0;flipH=1;" parent="X8BQIlrCG37Me6ErHnvs-21" vertex="1">
                    <mxGeometry x="860" y="745" width="20" height="20" as="geometry"/>
                </mxCell>
                <mxCell id="MnMOEux63UaktZFzUPe6-40" style="edgeStyle=none;rounded=0;orthogonalLoop=1;jettySize=auto;html=1;exitX=0;exitY=0.5;exitDx=0;exitDy=0;exitPerimeter=0;entryX=0;entryY=0.5;entryDx=0;entryDy=0;fontSize=12;fontColor=default;endArrow=none;endFill=0;" parent="X8BQIlrCG37Me6ErHnvs-21" source="MnMOEux63UaktZFzUPe6-24" target="MnMOEux63UaktZFzUPe6-37" edge="1">
                    <mxGeometry relative="1" as="geometry"/>
                </mxCell>
                <mxCell id="MnMOEux63UaktZFzUPe6-24" value="epoch endpoints" style="shape=providedRequiredInterface;html=1;verticalLabelPosition=bottom;sketch=0;rotation=0;flipH=1;" parent="X8BQIlrCG37Me6ErHnvs-21" vertex="1">
                    <mxGeometry x="870" y="475" width="20" height="20" as="geometry"/>
                </mxCell>
                <mxCell id="MnMOEux63UaktZFzUPe6-39" style="edgeStyle=none;rounded=0;orthogonalLoop=1;jettySize=auto;html=1;entryX=0;entryY=0.5;entryDx=0;entryDy=0;fontSize=12;fontColor=default;endArrow=none;endFill=0;" parent="X8BQIlrCG37Me6ErHnvs-21" source="MnMOEux63UaktZFzUPe6-25" target="MnMOEux63UaktZFzUPe6-38" edge="1">
                    <mxGeometry relative="1" as="geometry"/>
                </mxCell>
                <mxCell id="MnMOEux63UaktZFzUPe6-25" value="painting endpoints" style="shape=providedRequiredInterface;html=1;verticalLabelPosition=bottom;sketch=0;rotation=0;flipH=0;flipV=0;direction=west;" parent="X8BQIlrCG37Me6ErHnvs-21" vertex="1">
                    <mxGeometry x="870" y="610" width="20" height="20" as="geometry"/>
                </mxCell>
                <mxCell id="MnMOEux63UaktZFzUPe6-44" style="edgeStyle=orthogonalEdgeStyle;rounded=0;orthogonalLoop=1;jettySize=auto;html=1;exitX=1;exitY=0.5;exitDx=0;exitDy=0;fontSize=12;fontColor=default;endArrow=none;endFill=0;" parent="X8BQIlrCG37Me6ErHnvs-21" source="MnMOEux63UaktZFzUPe6-36" edge="1">
                    <mxGeometry relative="1" as="geometry">
                        <mxPoint x="1290" y="565" as="targetPoint"/>
                    </mxGeometry>
                </mxCell>
                <mxCell id="MnMOEux63UaktZFzUPe6-36" value="artist-api" style="html=1;fontSize=12;fontColor=default;" parent="X8BQIlrCG37Me6ErHnvs-21" vertex="1">
                    <mxGeometry x="1050" y="305" width="110" height="50" as="geometry"/>
                </mxCell>
                <mxCell id="MnMOEux63UaktZFzUPe6-47" style="edgeStyle=orthogonalEdgeStyle;rounded=0;orthogonalLoop=1;jettySize=auto;html=1;exitX=1;exitY=0.5;exitDx=0;exitDy=0;fontSize=12;fontColor=default;endArrow=none;endFill=0;entryX=0.5;entryY=0;entryDx=0;entryDy=0;" parent="X8BQIlrCG37Me6ErHnvs-21" source="MnMOEux63UaktZFzUPe6-37" edge="1">
                    <mxGeometry relative="1" as="geometry">
                        <mxPoint x="1290" y="565" as="targetPoint"/>
                    </mxGeometry>
                </mxCell>
                <mxCell id="MnMOEux63UaktZFzUPe6-37" value="epoch-api" style="html=1;fontSize=12;fontColor=default;" parent="X8BQIlrCG37Me6ErHnvs-21" vertex="1">
                    <mxGeometry x="1050" y="440" width="110" height="50" as="geometry"/>
                </mxCell>
                <mxCell id="MnMOEux63UaktZFzUPe6-48" style="edgeStyle=orthogonalEdgeStyle;rounded=0;orthogonalLoop=1;jettySize=auto;html=1;exitX=1;exitY=0.5;exitDx=0;exitDy=0;fontSize=12;fontColor=default;endArrow=none;endFill=0;" parent="X8BQIlrCG37Me6ErHnvs-21" source="MnMOEux63UaktZFzUPe6-38" edge="1">
                    <mxGeometry relative="1" as="geometry">
                        <mxPoint x="1290" y="595" as="targetPoint"/>
                        <Array as="points">
                            <mxPoint x="1290" y="620"/>
                        </Array>
                    </mxGeometry>
                </mxCell>
                <mxCell id="MnMOEux63UaktZFzUPe6-38" value="tracks-api" style="html=1;fontSize=12;fontColor=default;" parent="X8BQIlrCG37Me6ErHnvs-21" vertex="1">
                    <mxGeometry x="1050" y="595" width="110" height="50" as="geometry"/>
                </mxCell>
                <mxCell id="MnMOEux63UaktZFzUPe6-69" style="edgeStyle=none;rounded=0;orthogonalLoop=1;jettySize=auto;html=1;exitX=0;exitY=0;exitDx=180;exitDy=129.5;exitPerimeter=0;fontSize=12;fontColor=default;endArrow=classic;endFill=1;" parent="X8BQIlrCG37Me6ErHnvs-21" source="MnMOEux63UaktZFzUPe6-43" edge="1">
                    <mxGeometry relative="1" as="geometry">
                        <mxPoint x="1660" y="600" as="targetPoint"/>
                    </mxGeometry>
                </mxCell>
                <mxCell id="MnMOEux63UaktZFzUPe6-43" value="&lt;font style=&quot;font-size: 18px&quot;&gt;models&lt;/font&gt;" style="shape=folder;fontStyle=1;spacingTop=10;tabWidth=40;tabHeight=14;tabPosition=left;html=1;fontSize=12;fontColor=default;align=left;verticalAlign=top;" parent="X8BQIlrCG37Me6ErHnvs-21" vertex="1">
                    <mxGeometry x="1420" y="470" width="180" height="245" as="geometry"/>
                </mxCell>
                <mxCell id="MnMOEux63UaktZFzUPe6-45" value="joi-schema" style="rounded=0;whiteSpace=wrap;html=1;fontSize=12;fontColor=default;" parent="X8BQIlrCG37Me6ErHnvs-21" vertex="1">
                    <mxGeometry x="1470" y="520" width="80" height="50" as="geometry"/>
                </mxCell>
                <mxCell id="MnMOEux63UaktZFzUPe6-46" value="db" style="rounded=0;whiteSpace=wrap;html=1;fontSize=12;fontColor=default;" parent="X8BQIlrCG37Me6ErHnvs-21" vertex="1">
                    <mxGeometry x="1470" y="630" width="80" height="50" as="geometry"/>
                </mxCell>
                <mxCell id="MnMOEux63UaktZFzUPe6-49" value="" style="ellipse;fillColor=#ffffff;strokeColor=#000000;fontSize=12;fontColor=default;" parent="X8BQIlrCG37Me6ErHnvs-21" vertex="1">
                    <mxGeometry x="1280" y="565" width="30" height="30" as="geometry"/>
                </mxCell>
                <mxCell id="MnMOEux63UaktZFzUPe6-50" value="" style="ellipse;fillColor=#ffffff;strokeColor=#000000;fontSize=12;fontColor=default;" parent="X8BQIlrCG37Me6ErHnvs-21" vertex="1">
                    <mxGeometry x="1280" y="500" width="30" height="30" as="geometry"/>
                </mxCell>
                <mxCell id="MnMOEux63UaktZFzUPe6-52" value="" style="endArrow=open;endFill=1;endSize=12;html=1;rounded=0;fontSize=12;fontColor=default;entryX=0;entryY=0.5;entryDx=0;entryDy=0;" parent="X8BQIlrCG37Me6ErHnvs-21" source="MnMOEux63UaktZFzUPe6-50" target="MnMOEux63UaktZFzUPe6-45" edge="1">
                    <mxGeometry width="160" relative="1" as="geometry">
                        <mxPoint x="1590" y="420" as="sourcePoint"/>
                        <mxPoint x="1750" y="410" as="targetPoint"/>
                    </mxGeometry>
                </mxCell>
                <mxCell id="MnMOEux63UaktZFzUPe6-53" value="" style="endArrow=open;endFill=1;endSize=12;html=1;rounded=0;fontSize=12;fontColor=default;entryX=0;entryY=0.5;entryDx=0;entryDy=0;exitX=1;exitY=0.5;exitDx=0;exitDy=0;" parent="X8BQIlrCG37Me6ErHnvs-21" source="MnMOEux63UaktZFzUPe6-49" target="MnMOEux63UaktZFzUPe6-46" edge="1">
                    <mxGeometry width="160" relative="1" as="geometry">
                        <mxPoint x="1604.9383980969978" y="539.9980361906361" as="sourcePoint"/>
                        <mxPoint x="1700" y="548.64" as="targetPoint"/>
                    </mxGeometry>
                </mxCell>
                <mxCell id="MnMOEux63UaktZFzUPe6-55" value="&lt;font style=&quot;font-size: 18px&quot;&gt;mongo&lt;/font&gt;" style="shape=folder;fontStyle=1;spacingTop=10;tabWidth=40;tabHeight=14;tabPosition=left;html=1;fontSize=12;align=left;verticalAlign=top;" parent="X8BQIlrCG37Me6ErHnvs-21" vertex="1">
                    <mxGeometry x="1694" y="280" width="406" height="750" as="geometry"/>
                </mxCell>
                <mxCell id="MnMOEux63UaktZFzUPe6-65" style="edgeStyle=orthogonalEdgeStyle;rounded=0;orthogonalLoop=1;jettySize=auto;html=1;exitX=1;exitY=0.5;exitDx=0;exitDy=0;fontSize=12;fontColor=default;endArrow=classic;endFill=1;" parent="X8BQIlrCG37Me6ErHnvs-21" source="MnMOEux63UaktZFzUPe6-56" target="MnMOEux63UaktZFzUPe6-60" edge="1">
                    <mxGeometry relative="1" as="geometry"/>
                </mxCell>
                <mxCell id="MnMOEux63UaktZFzUPe6-56" value="userMongoStore" style="html=1;fontSize=12;fontColor=default;" parent="X8BQIlrCG37Me6ErHnvs-21" vertex="1">
                    <mxGeometry x="1730" y="320" width="110" height="50" as="geometry"/>
                </mxCell>
                <mxCell id="MnMOEux63UaktZFzUPe6-66" style="edgeStyle=orthogonalEdgeStyle;rounded=0;orthogonalLoop=1;jettySize=auto;html=1;entryX=0;entryY=0.5;entryDx=0;entryDy=0;fontSize=12;fontColor=default;endArrow=classic;endFill=1;" parent="X8BQIlrCG37Me6ErHnvs-21" source="MnMOEux63UaktZFzUPe6-58" target="MnMOEux63UaktZFzUPe6-61" edge="1">
                    <mxGeometry relative="1" as="geometry"/>
                </mxCell>
                <mxCell id="MnMOEux63UaktZFzUPe6-58" value="artistMongoStore" style="html=1;fontSize=12;fontColor=default;" parent="X8BQIlrCG37Me6ErHnvs-21" vertex="1">
                    <mxGeometry x="1730" y="410" width="110" height="50" as="geometry"/>
                </mxCell>
                <mxCell id="MnMOEux63UaktZFzUPe6-67" style="edgeStyle=orthogonalEdgeStyle;rounded=0;orthogonalLoop=1;jettySize=auto;html=1;fontSize=12;fontColor=default;endArrow=classic;endFill=1;" parent="X8BQIlrCG37Me6ErHnvs-21" source="MnMOEux63UaktZFzUPe6-59" target="MnMOEux63UaktZFzUPe6-62" edge="1">
                    <mxGeometry relative="1" as="geometry"/>
                </mxCell>
                <mxCell id="MnMOEux63UaktZFzUPe6-59" value="epochMongoStore" style="html=1;fontSize=12;fontColor=default;" parent="X8BQIlrCG37Me6ErHnvs-21" vertex="1">
                    <mxGeometry x="1730" y="500" width="110" height="50" as="geometry"/>
                </mxCell>
                <mxCell id="MnMOEux63UaktZFzUPe6-60" value="userSchema" style="html=1;fontSize=12;fontColor=default;" parent="X8BQIlrCG37Me6ErHnvs-21" vertex="1">
                    <mxGeometry x="1940" y="320" width="110" height="50" as="geometry"/>
                </mxCell>
                <mxCell id="MnMOEux63UaktZFzUPe6-61" value="artistSchema" style="html=1;fontSize=12;fontColor=default;" parent="X8BQIlrCG37Me6ErHnvs-21" vertex="1">
                    <mxGeometry x="1940" y="410" width="110" height="50" as="geometry"/>
                </mxCell>
                <mxCell id="MnMOEux63UaktZFzUPe6-62" value="epochSchema" style="html=1;fontSize=12;fontColor=default;" parent="X8BQIlrCG37Me6ErHnvs-21" vertex="1">
                    <mxGeometry x="1940" y="500" width="110" height="50" as="geometry"/>
                </mxCell>
                <mxCell id="MnMOEux63UaktZFzUPe6-72" style="edgeStyle=orthogonalEdgeStyle;rounded=0;orthogonalLoop=1;jettySize=auto;html=1;entryX=0;entryY=0.5;entryDx=0;entryDy=0;fontSize=12;fontColor=default;endArrow=classic;endFill=1;exitX=0.5;exitY=0;exitDx=0;exitDy=0;" parent="X8BQIlrCG37Me6ErHnvs-21" source="MnMOEux63UaktZFzUPe6-70" target="MnMOEux63UaktZFzUPe6-56" edge="1">
                    <mxGeometry relative="1" as="geometry">
                        <Array as="points">
                            <mxPoint x="1665" y="345"/>
                        </Array>
                    </mxGeometry>
                </mxCell>
                <mxCell id="MnMOEux63UaktZFzUPe6-73" style="edgeStyle=orthogonalEdgeStyle;rounded=0;orthogonalLoop=1;jettySize=auto;html=1;exitX=1;exitY=0;exitDx=0;exitDy=0;entryX=0;entryY=0.5;entryDx=0;entryDy=0;fontSize=12;fontColor=default;endArrow=classic;endFill=1;" parent="X8BQIlrCG37Me6ErHnvs-21" source="MnMOEux63UaktZFzUPe6-70" target="MnMOEux63UaktZFzUPe6-58" edge="1">
                    <mxGeometry relative="1" as="geometry">
                        <Array as="points">
                            <mxPoint x="1665" y="594"/>
                            <mxPoint x="1665" y="435"/>
                        </Array>
                    </mxGeometry>
                </mxCell>
                <mxCell id="MnMOEux63UaktZFzUPe6-74" style="edgeStyle=orthogonalEdgeStyle;rounded=0;orthogonalLoop=1;jettySize=auto;html=1;exitX=1;exitY=0;exitDx=0;exitDy=0;entryX=0;entryY=0.5;entryDx=0;entryDy=0;fontSize=12;fontColor=default;endArrow=classic;endFill=1;" parent="X8BQIlrCG37Me6ErHnvs-21" source="MnMOEux63UaktZFzUPe6-70" target="MnMOEux63UaktZFzUPe6-59" edge="1">
                    <mxGeometry relative="1" as="geometry">
                        <Array as="points">
                            <mxPoint x="1665" y="594"/>
                            <mxPoint x="1665" y="525"/>
                        </Array>
                    </mxGeometry>
                </mxCell>
                <mxCell id="15" style="edgeStyle=orthogonalEdgeStyle;html=1;exitX=1;exitY=0.5;exitDx=0;exitDy=0;" parent="X8BQIlrCG37Me6ErHnvs-21" source="MnMOEux63UaktZFzUPe6-70" target="14" edge="1">
                    <mxGeometry relative="1" as="geometry">
                        <Array as="points">
                            <mxPoint x="1680" y="600"/>
                            <mxPoint x="1710" y="600"/>
                            <mxPoint x="1710" y="975"/>
                        </Array>
                        <mxPoint x="1805" y="820" as="targetPoint"/>
                    </mxGeometry>
                </mxCell>
                <mxCell id="MnMOEux63UaktZFzUPe6-70" value="" style="ellipse;fillColor=#ffffff;strokeColor=#000000;fontSize=12;fontColor=default;" parent="X8BQIlrCG37Me6ErHnvs-21" vertex="1">
                    <mxGeometry x="1650" y="590" width="30" height="30" as="geometry"/>
                </mxCell>
                <mxCell id="MnMOEux63UaktZFzUPe6-90" value="package" style="shape=folder;fontStyle=1;spacingTop=10;tabWidth=40;tabHeight=14;tabPosition=left;html=1;fontSize=18;fontColor=default;align=left;verticalAlign=top;" parent="X8BQIlrCG37Me6ErHnvs-21" vertex="1">
                    <mxGeometry x="830" y="880" width="330" height="250" as="geometry"/>
                </mxCell>
                <mxCell id="MnMOEux63UaktZFzUPe6-91" value="api-routers" style="html=1;fontSize=12;fontColor=default;" parent="X8BQIlrCG37Me6ErHnvs-21" vertex="1">
                    <mxGeometry x="870" y="950" width="110" height="50" as="geometry"/>
                </mxCell>
                <mxCell id="MnMOEux63UaktZFzUPe6-93" value="server" style="html=1;fontSize=12;fontColor=default;" parent="X8BQIlrCG37Me6ErHnvs-21" vertex="1">
                    <mxGeometry x="940" y="1050" width="110" height="50" as="geometry"/>
                </mxCell>
                <mxCell id="MnMOEux63UaktZFzUPe6-95" value="" style="endArrow=block;dashed=1;endFill=0;endSize=12;html=1;rounded=0;fontSize=12;fontColor=default;exitX=0.25;exitY=0;exitDx=0;exitDy=0;entryX=0.75;entryY=1;entryDx=0;entryDy=0;" parent="X8BQIlrCG37Me6ErHnvs-21" source="MnMOEux63UaktZFzUPe6-93" target="MnMOEux63UaktZFzUPe6-91" edge="1">
                    <mxGeometry width="160" relative="1" as="geometry">
                        <mxPoint x="1032.5" y="1060" as="sourcePoint"/>
                        <mxPoint x="1070" y="1010" as="targetPoint"/>
                    </mxGeometry>
                </mxCell>
                <mxCell id="14" value="connect" style="html=1;" parent="X8BQIlrCG37Me6ErHnvs-21" vertex="1">
                    <mxGeometry x="1748" y="950" width="110" height="50" as="geometry"/>
                </mxCell>
                <mxCell id="41" style="edgeStyle=none;html=1;exitX=1;exitY=0.5;exitDx=0;exitDy=0;" parent="X8BQIlrCG37Me6ErHnvs-21" source="25" target="MnMOEux63UaktZFzUPe6-16" edge="1">
                    <mxGeometry relative="1" as="geometry"/>
                </mxCell>
                <mxCell id="25" value="epoch-api-test" style="rounded=0;whiteSpace=wrap;html=1;" parent="X8BQIlrCG37Me6ErHnvs-21" vertex="1">
                    <mxGeometry x="310" y="440" width="120" height="60" as="geometry"/>
                </mxCell>
                <mxCell id="40" style="edgeStyle=none;html=1;exitX=1;exitY=0.5;exitDx=0;exitDy=0;" parent="X8BQIlrCG37Me6ErHnvs-21" source="26" target="MnMOEux63UaktZFzUPe6-16" edge="1">
                    <mxGeometry relative="1" as="geometry"/>
                </mxCell>
                <mxCell id="26" value="gallery-api-test" style="rounded=0;whiteSpace=wrap;html=1;" parent="X8BQIlrCG37Me6ErHnvs-21" vertex="1">
                    <mxGeometry x="310" y="510" width="120" height="60" as="geometry"/>
                </mxCell>
                <mxCell id="39" style="edgeStyle=none;html=1;exitX=1;exitY=0.5;exitDx=0;exitDy=0;" parent="X8BQIlrCG37Me6ErHnvs-21" source="27" target="MnMOEux63UaktZFzUPe6-16" edge="1">
                    <mxGeometry relative="1" as="geometry"/>
                </mxCell>
                <mxCell id="27" value="painting-api-test" style="rounded=0;whiteSpace=wrap;html=1;" parent="X8BQIlrCG37Me6ErHnvs-21" vertex="1">
                    <mxGeometry x="310" y="584.5" width="120" height="60" as="geometry"/>
                </mxCell>
                <mxCell id="28" value="post-api-test" style="rounded=0;whiteSpace=wrap;html=1;" parent="X8BQIlrCG37Me6ErHnvs-21" vertex="1">
                    <mxGeometry x="310" y="650" width="120" height="60" as="geometry"/>
                </mxCell>
                <mxCell id="38" style="edgeStyle=none;html=1;exitX=1;exitY=0.5;exitDx=0;exitDy=0;" parent="X8BQIlrCG37Me6ErHnvs-21" source="31" target="MnMOEux63UaktZFzUPe6-16" edge="1">
                    <mxGeometry relative="1" as="geometry"/>
                </mxCell>
                <mxCell id="31" value="user-api-test" style="rounded=0;whiteSpace=wrap;html=1;" parent="X8BQIlrCG37Me6ErHnvs-21" vertex="1">
                    <mxGeometry x="310" y="725" width="120" height="60" as="geometry"/>
                </mxCell>
                <mxCell id="34" style="edgeStyle=none;rounded=0;orthogonalLoop=1;jettySize=auto;html=1;dashed=1;" parent="X8BQIlrCG37Me6ErHnvs-21" source="25" target="MnMOEux63UaktZFzUPe6-3" edge="1">
                    <mxGeometry relative="1" as="geometry">
                        <mxPoint x="320" y="425" as="sourcePoint"/>
                        <mxPoint x="180" y="465.2499999999998" as="targetPoint"/>
                    </mxGeometry>
                </mxCell>
                <mxCell id="35" style="edgeStyle=none;rounded=0;orthogonalLoop=1;jettySize=auto;html=1;exitX=0;exitY=0.5;exitDx=0;exitDy=0;dashed=1;" parent="X8BQIlrCG37Me6ErHnvs-21" source="26" target="MnMOEux63UaktZFzUPe6-3" edge="1">
                    <mxGeometry relative="1" as="geometry">
                        <mxPoint x="330" y="435" as="sourcePoint"/>
                        <mxPoint x="190" y="475.2499999999998" as="targetPoint"/>
                    </mxGeometry>
                </mxCell>
                <mxCell id="36" style="edgeStyle=none;rounded=0;orthogonalLoop=1;jettySize=auto;html=1;exitX=0;exitY=0.5;exitDx=0;exitDy=0;dashed=1;" parent="X8BQIlrCG37Me6ErHnvs-21" source="28" target="MnMOEux63UaktZFzUPe6-3" edge="1">
                    <mxGeometry relative="1" as="geometry">
                        <mxPoint x="290" y="579.75" as="sourcePoint"/>
                        <mxPoint x="150" y="619.9999999999998" as="targetPoint"/>
                    </mxGeometry>
                </mxCell>
                <mxCell id="37" style="edgeStyle=none;rounded=0;orthogonalLoop=1;jettySize=auto;html=1;exitX=0;exitY=0.5;exitDx=0;exitDy=0;dashed=1;" parent="X8BQIlrCG37Me6ErHnvs-21" source="31" target="MnMOEux63UaktZFzUPe6-3" edge="1">
                    <mxGeometry relative="1" as="geometry">
                        <mxPoint x="350" y="455" as="sourcePoint"/>
                        <mxPoint x="210" y="495.2499999999998" as="targetPoint"/>
                    </mxGeometry>
                </mxCell>
                <mxCell id="44" value="gallery-api" style="rounded=0;whiteSpace=wrap;html=1;" parent="X8BQIlrCG37Me6ErHnvs-21" vertex="1">
                    <mxGeometry x="1050" y="510" width="110" height="60" as="geometry"/>
                </mxCell>
                <mxCell id="45" value="painting-api" style="rounded=0;whiteSpace=wrap;html=1;" parent="X8BQIlrCG37Me6ErHnvs-21" vertex="1">
                    <mxGeometry x="1050" y="584.5" width="110" height="60" as="geometry"/>
                </mxCell>
                <mxCell id="46" value="post-api" style="rounded=0;whiteSpace=wrap;html=1;" parent="X8BQIlrCG37Me6ErHnvs-21" vertex="1">
                    <mxGeometry x="1050" y="650" width="110" height="60" as="geometry"/>
                </mxCell>
                <mxCell id="47" value="user-api" style="rounded=0;whiteSpace=wrap;html=1;" parent="X8BQIlrCG37Me6ErHnvs-21" vertex="1">
                    <mxGeometry x="1050" y="725" width="110" height="60" as="geometry"/>
                </mxCell>
                <mxCell id="56" style="edgeStyle=none;rounded=0;orthogonalLoop=1;jettySize=auto;html=1;entryX=1;entryY=0.5;entryDx=0;entryDy=0;entryPerimeter=0;endArrow=none;endFill=0;exitX=1;exitY=0.5;exitDx=0;exitDy=0;" parent="X8BQIlrCG37Me6ErHnvs-21" source="MnMOEux63UaktZFzUPe6-16" target="58" edge="1">
                    <mxGeometry relative="1" as="geometry">
                        <mxPoint x="640" y="555.6249999999999" as="sourcePoint"/>
                    </mxGeometry>
                </mxCell>
                <mxCell id="57" style="edgeStyle=none;rounded=0;orthogonalLoop=1;jettySize=auto;html=1;exitX=0;exitY=0.5;exitDx=0;exitDy=0;exitPerimeter=0;fontSize=12;fontColor=default;endArrow=none;endFill=0;" parent="X8BQIlrCG37Me6ErHnvs-21" source="58" target="46" edge="1">
                    <mxGeometry relative="1" as="geometry">
                        <mxPoint x="1080" y="495" as="targetPoint"/>
                    </mxGeometry>
                </mxCell>
                <mxCell id="58" value="post endpoints" style="shape=providedRequiredInterface;html=1;verticalLabelPosition=bottom;sketch=0;rotation=0;flipH=1;" parent="X8BQIlrCG37Me6ErHnvs-21" vertex="1">
                    <mxGeometry x="870" y="670" width="20" height="20" as="geometry"/>
                </mxCell>
                <mxCell id="59" style="edgeStyle=none;rounded=0;orthogonalLoop=1;jettySize=auto;html=1;entryX=1;entryY=0.5;entryDx=0;entryDy=0;entryPerimeter=0;endArrow=none;endFill=0;" parent="X8BQIlrCG37Me6ErHnvs-21" source="MnMOEux63UaktZFzUPe6-16" target="61" edge="1">
                    <mxGeometry relative="1" as="geometry">
                        <mxPoint x="650" y="565.6249999999999" as="sourcePoint"/>
                    </mxGeometry>
                </mxCell>
                <mxCell id="60" style="edgeStyle=none;rounded=0;orthogonalLoop=1;jettySize=auto;html=1;exitX=0;exitY=0.5;exitDx=0;exitDy=0;exitPerimeter=0;fontSize=12;fontColor=default;endArrow=none;endFill=0;" parent="X8BQIlrCG37Me6ErHnvs-21" source="61" target="44" edge="1">
                    <mxGeometry relative="1" as="geometry">
                        <mxPoint x="1090" y="505" as="targetPoint"/>
                    </mxGeometry>
                </mxCell>
                <mxCell id="61" value="gallery endpoints" style="shape=providedRequiredInterface;html=1;verticalLabelPosition=bottom;sketch=0;rotation=0;flipH=1;" parent="X8BQIlrCG37Me6ErHnvs-21" vertex="1">
                    <mxGeometry x="860" y="545" width="20" height="20" as="geometry"/>
                </mxCell>
                <mxCell id="62" style="edgeStyle=none;rounded=0;orthogonalLoop=1;jettySize=auto;html=1;entryX=1;entryY=0.5;entryDx=0;entryDy=0;entryPerimeter=0;endArrow=none;endFill=0;" parent="X8BQIlrCG37Me6ErHnvs-21" source="MnMOEux63UaktZFzUPe6-16" target="64" edge="1">
                    <mxGeometry relative="1" as="geometry">
                        <mxPoint x="590" y="420.6249999999999" as="sourcePoint"/>
                    </mxGeometry>
                </mxCell>
                <mxCell id="63" style="edgeStyle=none;rounded=0;orthogonalLoop=1;jettySize=auto;html=1;exitX=0;exitY=0.5;exitDx=0;exitDy=0;exitPerimeter=0;entryX=0;entryY=0.5;entryDx=0;entryDy=0;fontSize=12;fontColor=default;endArrow=none;endFill=0;" parent="X8BQIlrCG37Me6ErHnvs-21" source="64" target="MnMOEux63UaktZFzUPe6-36" edge="1">
                    <mxGeometry relative="1" as="geometry">
                        <mxPoint x="1030" y="360" as="targetPoint"/>
                    </mxGeometry>
                </mxCell>
                <mxCell id="64" value="artist endpoints" style="shape=providedRequiredInterface;html=1;verticalLabelPosition=bottom;sketch=0;rotation=0;flipH=1;" parent="X8BQIlrCG37Me6ErHnvs-21" vertex="1">
                    <mxGeometry x="850" y="370" width="20" height="20" as="geometry"/>
                </mxCell>
                <mxCell id="66" style="edgeStyle=none;rounded=0;orthogonalLoop=1;jettySize=auto;html=1;dashed=1;" parent="X8BQIlrCG37Me6ErHnvs-21" source="MnMOEux63UaktZFzUPe6-91" target="MnMOEux63UaktZFzUPe6-36" edge="1">
                    <mxGeometry relative="1" as="geometry">
                        <mxPoint x="810" y="830" as="sourcePoint"/>
                        <mxPoint x="810" y="395" as="targetPoint"/>
                    </mxGeometry>
                </mxCell>
                <mxCell id="67" style="edgeStyle=none;rounded=0;orthogonalLoop=1;jettySize=auto;html=1;dashed=1;" parent="X8BQIlrCG37Me6ErHnvs-21" source="MnMOEux63UaktZFzUPe6-91" target="MnMOEux63UaktZFzUPe6-37" edge="1">
                    <mxGeometry relative="1" as="geometry">
                        <mxPoint x="1076.4619883040937" y="999" as="sourcePoint"/>
                        <mxPoint x="1113.5380116959063" y="365" as="targetPoint"/>
                    </mxGeometry>
                </mxCell>
                <mxCell id="68" style="edgeStyle=none;rounded=0;orthogonalLoop=1;jettySize=auto;html=1;dashed=1;" parent="X8BQIlrCG37Me6ErHnvs-21" source="MnMOEux63UaktZFzUPe6-91" target="44" edge="1">
                    <mxGeometry relative="1" as="geometry">
                        <mxPoint x="1086.4619883040937" y="1009" as="sourcePoint"/>
                        <mxPoint x="1123.5380116959063" y="375" as="targetPoint"/>
                    </mxGeometry>
                </mxCell>
                <mxCell id="69" style="edgeStyle=none;rounded=0;orthogonalLoop=1;jettySize=auto;html=1;dashed=1;" parent="X8BQIlrCG37Me6ErHnvs-21" source="MnMOEux63UaktZFzUPe6-91" target="45" edge="1">
                    <mxGeometry relative="1" as="geometry">
                        <mxPoint x="1096.4619883040937" y="1019" as="sourcePoint"/>
                        <mxPoint x="1133.5380116959063" y="385" as="targetPoint"/>
                    </mxGeometry>
                </mxCell>
                <mxCell id="70" style="edgeStyle=none;rounded=0;orthogonalLoop=1;jettySize=auto;html=1;dashed=1;" parent="X8BQIlrCG37Me6ErHnvs-21" source="MnMOEux63UaktZFzUPe6-91" target="46" edge="1">
                    <mxGeometry relative="1" as="geometry">
                        <mxPoint x="1106.4619883040937" y="1029" as="sourcePoint"/>
                        <mxPoint x="1143.5380116959063" y="395" as="targetPoint"/>
                    </mxGeometry>
                </mxCell>
                <mxCell id="71" style="edgeStyle=none;rounded=0;orthogonalLoop=1;jettySize=auto;html=1;dashed=1;" parent="X8BQIlrCG37Me6ErHnvs-21" source="MnMOEux63UaktZFzUPe6-91" target="47" edge="1">
                    <mxGeometry relative="1" as="geometry">
                        <mxPoint x="1116.4619883040937" y="1039" as="sourcePoint"/>
                        <mxPoint x="1153.5380116959063" y="405" as="targetPoint"/>
                    </mxGeometry>
                </mxCell>
                <mxCell id="73" style="edgeStyle=orthogonalEdgeStyle;rounded=0;orthogonalLoop=1;jettySize=auto;html=1;exitX=1;exitY=0.5;exitDx=0;exitDy=0;fontSize=12;fontColor=default;endArrow=none;endFill=0;" parent="X8BQIlrCG37Me6ErHnvs-21" edge="1">
                    <mxGeometry relative="1" as="geometry">
                        <mxPoint x="1290" y="620" as="targetPoint"/>
                        <Array as="points">
                            <mxPoint x="1290" y="690"/>
                        </Array>
                        <mxPoint x="1160" y="690" as="sourcePoint"/>
                    </mxGeometry>
                </mxCell>
                <mxCell id="74" style="edgeStyle=orthogonalEdgeStyle;rounded=0;orthogonalLoop=1;jettySize=auto;html=1;exitX=1;exitY=0.5;exitDx=0;exitDy=0;fontSize=12;fontColor=default;endArrow=none;endFill=0;" parent="X8BQIlrCG37Me6ErHnvs-21" edge="1">
                    <mxGeometry relative="1" as="geometry">
                        <mxPoint x="1290" y="690" as="targetPoint"/>
                        <Array as="points">
                            <mxPoint x="1290" y="765"/>
                        </Array>
                        <mxPoint x="1160" y="765" as="sourcePoint"/>
                    </mxGeometry>
                </mxCell>
                <mxCell id="75" style="edgeStyle=orthogonalEdgeStyle;rounded=0;orthogonalLoop=1;jettySize=auto;html=1;exitX=1;exitY=0.5;exitDx=0;exitDy=0;fontSize=12;fontColor=default;endArrow=none;endFill=0;" parent="X8BQIlrCG37Me6ErHnvs-21" edge="1">
                    <mxGeometry relative="1" as="geometry">
                        <mxPoint x="1290" y="520" as="targetPoint"/>
                        <Array as="points">
                            <mxPoint x="1290" y="545"/>
                        </Array>
                        <mxPoint x="1160" y="545" as="sourcePoint"/>
                    </mxGeometry>
                </mxCell>
                <mxCell id="76" style="edgeStyle=orthogonalEdgeStyle;rounded=0;orthogonalLoop=1;jettySize=auto;html=1;exitX=1;exitY=0.5;exitDx=0;exitDy=0;fontSize=12;fontColor=default;endArrow=classic;endFill=1;" parent="X8BQIlrCG37Me6ErHnvs-21" source="77" target="83" edge="1">
                    <mxGeometry relative="1" as="geometry"/>
                </mxCell>
                <mxCell id="77" value="galleryMongoStore" style="html=1;fontSize=12;fontColor=default;" parent="X8BQIlrCG37Me6ErHnvs-21" vertex="1">
                    <mxGeometry x="1730" y="584" width="110" height="50" as="geometry"/>
                </mxCell>
                <mxCell id="78" style="edgeStyle=orthogonalEdgeStyle;rounded=0;orthogonalLoop=1;jettySize=auto;html=1;entryX=0;entryY=0.5;entryDx=0;entryDy=0;fontSize=12;fontColor=default;endArrow=classic;endFill=1;" parent="X8BQIlrCG37Me6ErHnvs-21" source="80" target="84" edge="1">
                    <mxGeometry relative="1" as="geometry"/>
                </mxCell>
                <mxCell id="80" value="postMongoStore" style="html=1;fontSize=12;fontColor=default;" parent="X8BQIlrCG37Me6ErHnvs-21" vertex="1">
                    <mxGeometry x="1730" y="674" width="110" height="50" as="geometry"/>
                </mxCell>
                <mxCell id="81" style="edgeStyle=orthogonalEdgeStyle;rounded=0;orthogonalLoop=1;jettySize=auto;html=1;fontSize=12;fontColor=default;endArrow=classic;endFill=1;" parent="X8BQIlrCG37Me6ErHnvs-21" source="82" target="85" edge="1">
                    <mxGeometry relative="1" as="geometry"/>
                </mxCell>
                <mxCell id="82" value="paintingMongoStore" style="html=1;fontSize=12;fontColor=default;" parent="X8BQIlrCG37Me6ErHnvs-21" vertex="1">
                    <mxGeometry x="1730" y="764" width="110" height="50" as="geometry"/>
                </mxCell>
                <mxCell id="83" value="gallerySchema" style="html=1;fontSize=12;fontColor=default;" parent="X8BQIlrCG37Me6ErHnvs-21" vertex="1">
                    <mxGeometry x="1940" y="584" width="110" height="50" as="geometry"/>
                </mxCell>
                <mxCell id="84" value="postSchema" style="html=1;fontSize=12;fontColor=default;" parent="X8BQIlrCG37Me6ErHnvs-21" vertex="1">
                    <mxGeometry x="1940" y="674" width="110" height="50" as="geometry"/>
                </mxCell>
                <mxCell id="85" value="paintingSchema" style="html=1;fontSize=12;fontColor=default;" parent="X8BQIlrCG37Me6ErHnvs-21" vertex="1">
                    <mxGeometry x="1940" y="764" width="110" height="50" as="geometry"/>
                </mxCell>
                <mxCell id="1" parent="0"/>
            </root>
        </mxGraphModel>
    </diagram>
</mxfile>